<?xml version="1.0" encoding="utf-8"?>
<!-- Generator: Adobe Illustrator 21.0.0, SVG Export Plug-In . SVG Version: 6.00 Build 0)  -->
<svg version="1.1" id="Layer_1" xmlns="http://www.w3.org/2000/svg" xmlns:xlink="http://www.w3.org/1999/xlink" x="0px" y="0px"
	 viewBox="0 0 257.7 40" style="enable-background:new 0 0 257.7 40;" xml:space="preserve">
<style type="text/css">
	.st0{fill:#FFF2D0;stroke:#3F2C16;stroke-miterlimit:10;}
	.st1{fill:#E6E6E5;stroke:#1E1E1E;stroke-miterlimit:10;}
	.st2{fill:#F3F3F3;stroke:#2E2E2E;stroke-miterlimit:10;}
	.st3{fill:#DEC17A;stroke:#302813;stroke-miterlimit:10;}
	.st4{fill:#FFFFFF;stroke:#000000;stroke-miterlimit:10;}
	.st5{fill:#F9C8D5;stroke:#38111A;stroke-miterlimit:10;}
	.st6{fill:#FFFFFF;stroke:#38111A;stroke-miterlimit:10;}
	.st7{fill:#FEC356;stroke:#3F2C16;stroke-miterlimit:10;}
	.st8{fill:#FFF2D0;stroke:#000000;stroke-miterlimit:10;}
	.st9{fill:#8996A3;stroke:#1E1E1E;stroke-miterlimit:10;}
	.st10{fill:#E6E6E5;stroke:#000000;stroke-miterlimit:10;}
	.st11{fill:#8DC641;stroke:#223519;stroke-miterlimit:10;}
	.st12{fill:#FDF497;stroke:#223519;stroke-miterlimit:10;}
	.st13{fill:#F3F3F3;stroke:#2E2E2E;stroke-linecap:round;stroke-miterlimit:10;}
	.st14{fill:#F27BAA;}
	.st15{fill:#F27BAA;stroke:#302813;stroke-miterlimit:10;}
	.st16{fill:#010101;}
	.st17{fill:none;stroke:#302813;stroke-linecap:round;stroke-miterlimit:10;}
	.st18{fill:#DEC17A;stroke:#302813;stroke-linecap:round;stroke-miterlimit:10;}
	.st19{fill:#90732F;stroke:#302813;stroke-miterlimit:10;}
	.st20{fill:#F9C8D5;stroke:#38111A;stroke-linecap:round;stroke-miterlimit:10;}
	.st21{fill:#DBC08E;stroke:#38111A;stroke-miterlimit:10;}
	.st22{fill:none;stroke:#38111A;stroke-linecap:round;stroke-miterlimit:10;}
	.st23{fill:none;stroke:#3F2C16;stroke-linecap:round;stroke-miterlimit:10;}
	.st24{fill:#FEC356;stroke:#3F2C16;stroke-linecap:round;stroke-miterlimit:10;}
	.st25{fill:none;stroke:#1E1E1E;stroke-linecap:round;stroke-miterlimit:10;}
	.st26{fill:#8996A3;stroke:#1E1E1E;stroke-linecap:round;stroke-miterlimit:10;}
	.st27{fill:none;stroke:#2E2E2E;stroke-linecap:round;stroke-miterlimit:10;}
	.st28{fill:#B5B6B6;}
	.st29{fill:none;stroke:#2E2E2E;stroke-miterlimit:10;}
	.st30{fill:#8DC641;stroke:#223519;stroke-linecap:round;stroke-miterlimit:10;}
	.st31{fill:#FBECA6;stroke:#223519;stroke-linecap:round;stroke-linejoin:round;stroke-miterlimit:10;}
	.st32{fill:#079247;stroke:#223519;stroke-linecap:round;stroke-miterlimit:10;}
	.st33{fill:#FBECA6;stroke:#223519;stroke-miterlimit:10;}
</style>
<path class="st0" d="M115.5,12.1h-18V4.2c0-1.1,1.3-1.6,2.1-0.9L115.5,12.1z"/>
<path class="st0" d="M101.5,12.1h18V4.2c0-1.1-1.3-1.6-2.1-0.9L101.5,12.1z"/>
<path class="st1" d="M28.2,12.2H17.3V4.3c0-1.1,1.3-1.6,2.1-0.9L28.2,12.2z"/>
<path class="st1" d="M28.5,12.2h10.9V4.3c0-1.1-1.3-1.6-2.1-0.9L28.5,12.2z"/>
<path class="st2" d="M160.4,18.6c0-6.6-5.4-12-12-12c-6.6,0-12,5.4-12,12v11.6h24V18.6z"/>
<path class="st3" d="M62.5,30c0-3.2,2.6-5.8,5.8-5.8h0.4c3.2,0,5.8,2.6,5.8,5.8v0.2h6V16c0-3.5-1.5-6.6-3.8-8.8
	c-0.4,0.9-1.3,1.5-2.3,1.5c-1.4,0-2.6-1.2-2.6-2.6V4.4c-1-0.3-2.1-0.5-3.2-0.5c-1.1,0-2.2,0.2-3.2,0.5v1.7c0,1.4-1.2,2.6-2.6,2.6
	c-1,0-1.9-0.6-2.3-1.5c-2.4,2.2-3.8,5.3-3.8,8.8c0,0.5-0.2,8.1-0.2,14.2h6V30z"/>
<path class="st4" d="M68.7,24.2h-0.4c-3.2,0-5.8,2.6-5.8,5.8v0.2h12V30C74.5,26.8,71.9,24.2,68.7,24.2z"/>
<path class="st5" d="M228.3,24.9h0.4c3,0,5.5,2.3,5.8,5.3h6c0-6-0.1-13.5-0.2-13.5c0-3.5-1.4-6.6-3.8-8.8c-1.4-1.3-3-2.3-4.9-2.8
	c-1-0.3-2.1-0.5-3.2-0.5s-2.2,0.2-3.2,0.5c-1.8,0.6-3.5,1.5-4.9,2.8c-2.3,2.2-3.8,5.3-3.8,8.8v13.5h6
	C222.7,27.2,225.2,24.9,228.3,24.9z"/>
<path class="st6" d="M228.7,24.9h-0.4c-3,0-5.5,2.3-5.8,5.3h11.9C234.2,27.2,231.7,24.9,228.7,24.9z"/>
<path class="st7" d="M108.3,25.2h0.4c2.9,0,5.3,2.2,5.7,5h6.1V17c0-6.6-5.4-12-12-12c-6.6,0-12,5.4-12,12v13.2h6.1
	C102.9,27.4,105.3,25.2,108.3,25.2z"/>
<path class="st8" d="M108.7,25.2h-0.4c-2.9,0-5.3,2.2-5.7,5h11.9C114,27.4,111.6,25.2,108.7,25.2z"/>
<path class="st9" d="M28.1,25.2h0.4c2.9,0,5.3,2.2,5.7,5h6.3V16.9c0-6.6-5.4-12-12-12c-6.6,0-12,5.4-12,12v13.3h5.9
	C22.7,27.4,25.1,25.2,28.1,25.2z"/>
<path class="st10" d="M28.5,25.2h-0.4c-2.9,0-5.3,2.2-5.7,5h11.9C33.8,27.4,31.4,25.2,28.5,25.2z"/>
<path class="st11" d="M188.3,25.2h0.4c2.9,0,5.3,2.2,5.7,5h6.1V17c0-6.6-5.4-12-12-12c-6.6,0-12,5.4-12,12v13.2h6.1
	C182.9,27.4,185.3,25.2,188.3,25.2z"/>
<path class="st12" d="M188.7,25.2h-0.4c-2.9,0-5.3,2.2-5.7,5h11.9C194,27.4,191.6,25.2,188.7,25.2z"/>
<line class="st4" x1="1.6" y1="30.2" x2="255.7" y2="30.2"/>
<path class="st13" d="M150.3,29.7c0-0.3,0-0.6,0.1-1c0.2-1.3,0.9-2.5,2.1-3.1c1.4-0.6,3-0.2,4.3,0.5"/>
<path class="st13" d="M160.4,29.3c0,1-0.1,2-0.6,2.8c-0.6,0.8-1.7,1.3-2.6,0.9c-0.4-0.2-0.8-0.6-1.2-0.8c-0.9-0.4-2,0.3-2.4,1.2
	s-0.4,1.9-0.3,2.9c-1-1.1-1.8-2.4-2.3-3.8c-0.4-0.9-0.6-1.9-0.7-2.8"/>
<ellipse class="st14" cx="76.5" cy="13.5" rx="2" ry="1"/>
<ellipse class="st14" cx="60.5" cy="13.5" rx="2" ry="1"/>
<path class="st15" d="M67.1,17.1v1.2c0,0.7,0.6,1.3,1.3,1.3l0,0c0.7,0,1.3-0.6,1.3-1.3v-1.1"/>
<ellipse class="st16" cx="68.5" cy="14.3" rx="1.5" ry="1"/>
<g>
	<path class="st17" d="M64.7,15.4c0,1,0.8,1.9,1.9,1.9s1.9-0.2,1.9-2.2c0,2.1,0.8,2.2,1.9,2.2s1.9-0.8,1.9-1.9"/>
</g>
<path class="st18" d="M64.6,22.9v8c0,2.2-1.8,4-4,4l0,0c-2.2,0-4-1.8-4-4v-8"/>
<path class="st18" d="M80.5,22.9v8c0,2.2-1.8,4-4,4l0,0c-2.2,0-4-1.8-4-4v-8"/>
<circle class="st16" cx="73.5" cy="11.8" r="1.8"/>
<circle class="st16" cx="63.5" cy="11.8" r="1.8"/>
<path class="st19" d="M62.6,8.7c1.4,0,2.6-1.2,2.6-2.6V4.4c-1.9,0.5-3.5,1.5-4.9,2.8C60.7,8.1,61.6,8.7,62.6,8.7z"/>
<path class="st19" d="M74.3,8.7c1,0,1.9-0.6,2.3-1.5c-1.4-1.3-3.1-2.2-4.9-2.8v1.7C71.7,7.5,72.9,8.7,74.3,8.7z"/>
<path class="st6" d="M234.1,6.8c0.4-0.7,0.5-1.5,0.9-2.2s1.1-1.4,1.9-1.4c0.7,0,1.3,0.4,1.8,0.9c0.8,0.7,1.4,1.5,2,2.4
	c0.1,0.2,0.2,0.4,0.2,0.5c0,0.2-0.2,0.4-0.4,0.6c-1.1,1-2,2.3-2.7,3.7L234.1,6.8z"/>
<path class="st6" d="M222.8,6.8c-0.4-0.7-0.5-1.5-0.9-2.2s-1.1-1.4-1.9-1.4c-0.7,0-1.3,0.4-1.8,0.9c-0.8,0.7-1.4,1.5-2,2.4
	C216.1,6.7,216,6.9,216,7c0,0.2,0.2,0.4,0.4,0.6c1.1,1,2,2.3,2.7,3.7L222.8,6.8z"/>
<path class="st20" d="M224.5,23.6v4v4c0,1.1-0.4,2.7-1.2,3.4c-1.4,1.4-1.7-0.6-2.8-0.6l0,0l0,0c-1.1,0-1.5,2-2.8,0.6
	c-0.7-0.7-1.2-2.3-1.2-3.4v-4v-4"/>
<path class="st20" d="M240.4,23.6v4v4c0,1.1-0.4,2.7-1.2,3.4c-1.4,1.4-1.7-0.6-2.8-0.6l0,0l0,0c-1.1,0-1.5,2-2.8,0.6
	c-0.7-0.7-1.2-2.3-1.2-3.4v-4v-4"/>
<ellipse class="st21" cx="228.5" cy="15.9" rx="3.2" ry="2.6"/>
<line class="st22" x1="227.8" y1="15.7" x2="227.8" y2="16.2"/>
<line class="st22" x1="229.3" y1="15.7" x2="229.3" y2="16.2"/>
<ellipse class="st14" cx="235.5" cy="13.2" rx="2" ry="1"/>
<ellipse class="st14" cx="221.5" cy="13.2" rx="2" ry="1"/>
<circle class="st16" cx="223.1" cy="11.4" r="1.6"/>
<circle class="st16" cx="233.6" cy="11.4" r="1.6"/>
<ellipse class="st16" cx="108.5" cy="15.3" rx="1.5" ry="1"/>
<g>
	<path class="st23" d="M104.7,17.4c0,1,0.8,1.9,1.9,1.9s1.9-1.1,1.9-3.2c0,2.1,0.8,3.2,1.9,3.2s1.9-0.8,1.9-1.9"/>
</g>
<path class="st24" d="M104.5,23.9v8c0,2.2-1.8,4-4,4l0,0c-2.2,0-4-1.8-4-4v-8"/>
<path class="st24" d="M120.5,23.9v8c0,2.2-1.8,4-4,4l0,0c-2.2,0-4-1.8-4-4v-8"/>
<path class="st23" d="M113.6,16.2c2.4-1.1,5.2-0.9,7.9-0.7"/>
<path class="st23" d="M114.2,18.1c2.4-0.2,4.8,0.1,7.1,0.7"/>
<path class="st23" d="M113.8,20.1c0.4-0.1,0.8,0,1.1,0.1c2,0.3,4,1,5.9,1.8"/>
<path class="st23" d="M103.3,16.2c-2.4-1.1-5.2-0.9-7.9-0.7"/>
<path class="st23" d="M102.7,18.1c-2.4-0.2-4.8,0.1-7.1,0.7"/>
<path class="st23" d="M103.1,20.1c-0.4-0.1-0.8,0-1.1,0.1c-2,0.3-4,1-5.9,1.8"/>
<ellipse class="st14" cx="116" cy="14" rx="2" ry="1"/>
<ellipse class="st14" cx="101" cy="14" rx="2" ry="1"/>
<path class="st16" d="M112.7,14.8h-1.2v-1.2c0-1.5,1.3-2.8,2.8-2.8h1.2V12C115.5,13.5,114.2,14.8,112.7,14.8z"/>
<path class="st16" d="M104.3,14.8h1.2v-1.2c0-1.5-1.3-2.8-2.8-2.8h-1.2V12C101.5,13.5,102.7,14.8,104.3,14.8z"/>
<ellipse class="st14" cx="36.3" cy="14.6" rx="2" ry="1"/>
<ellipse class="st14" cx="20.3" cy="14.6" rx="2" ry="1"/>
<ellipse class="st16" cx="28.3" cy="15.3" rx="1.5" ry="1"/>
<g>
	<path class="st25" d="M24.6,17.4c0,1,0.8,1.9,1.9,1.9s1.9-1.1,1.9-3.2c0,2.1,0.8,3.2,1.9,3.2s1.9-0.8,1.9-1.9"/>
</g>
<path class="st26" d="M24.5,23.8v8c0,2.2-1.8,4-4,4l0,0c-2.2,0-4-1.8-4-4v-8"/>
<path class="st26" d="M40.5,23.8v8c0,2.2-1.8,4-4,4l0,0c-2.2,0-4-1.8-4-4v-8"/>
<circle class="st16" cx="33.3" cy="12.8" r="2"/>
<circle class="st16" cx="23.3" cy="12.8" r="2"/>
<ellipse class="st14" cx="156.5" cy="16.2" rx="2" ry="1"/>
<ellipse class="st14" cx="140.5" cy="16.2" rx="2" ry="1"/>
<ellipse class="st16" cx="148.5" cy="16.9" rx="1.5" ry="1"/>
<path class="st27" d="M144.7,19c0,1,0.8,1.9,1.9,1.9s1.9-1.1,1.9-3.2c0,2.1,0.8,3.2,1.9,3.2s1.9-0.8,1.9-1.9"/>
<path class="st13" d="M146.2,28.1c-0.3-1-1-2-2-2.5c-1.4-0.6-3-0.2-4.3,0.5"/>
<path class="st13" d="M136.4,29.3c0,1,0.1,2,0.6,2.8c0.6,0.8,1.7,1.3,2.6,0.9c0.4-0.2,0.8-0.6,1.2-0.8c0.9-0.4,2,0.3,2.4,1.2
	s0.4,1.9,0.3,2.9c1-1.1,1.8-2.4,2.3-3.8c0.5-1.2,0.8-2.5,0.6-3.8c0-0.2-0.1-0.4-0.1-0.6"/>
<ellipse class="st28" cx="148.5" cy="14.4" rx="4" ry="1"/>
<circle class="st16" cx="153.5" cy="14.4" r="2"/>
<circle class="st16" cx="143.5" cy="14.4" r="2"/>
<ellipse class="st29" cx="148.5" cy="5.1" rx="8.3" ry="2.1"/>
<ellipse class="st14" cx="196.5" cy="15.5" rx="2" ry="1"/>
<ellipse class="st14" cx="180.5" cy="15.5" rx="2" ry="1"/>
<path class="st30" d="M184.5,25.2v6.7c0,2.2-1.8,4-4,4l0,0c-2.2,0-4-1.8-4-4v-8"/>
<path class="st30" d="M200.5,23.9v8c0,2.2-1.8,4-4,4l0,0c-2.2,0-4-1.8-4-4v-6.7"/>
<circle class="st16" cx="193.5" cy="13.8" r="2"/>
<circle class="st16" cx="183.5" cy="13.8" r="2"/>
<path class="st31" d="M184.3,18.7c-0.1,0.2-0.1,0.4-0.1,0.6c0,1.5,1.9,2.8,4.2,2.8s4.2-1.2,4.2-2.8c0-0.2,0-0.4-0.1-0.6
	c-1.1,0.5-2.5,0.8-4.1,0.8S185.4,19.2,184.3,18.7z"/>
<path class="st31" d="M188.5,16.5c-2,0-3.7,0.9-4.1,2.2c1.1,0.5,2.5,0.8,4.1,0.8s3-0.3,4.1-0.8C192.2,17.5,190.5,16.5,188.5,16.5z"
	/>
<path class="st32" d="M181.5,5.9c-1,1.2-2.1,1.9-3.6,2.8c1.4,0.3,2.5,0.5,4,0.3c-0.1,1-0.4,1.9-0.8,2.8c1.4-0.7,2.7-1.3,4.1-2
	c0.1,0.9,0.1,1.8,0,2.7c1-0.8,2-1.6,2.8-2.6c0.7,0.9,1.7,1.9,2,3c0.3-0.9,0.8-2,1.1-2.9c0.9,0.6,2.4,1.5,3,2.4
	c0.1-1,0.6-2.4,0.7-3.4c1.3,0.9,3.3,0.3,4.2,0.1c-1.2-0.9-2.6-2.1-3.4-3.4"/>
<ellipse class="st33" cx="188.5" cy="5.5" rx="7" ry="2.6"/>
</svg>
